<svg width="480" height="482" viewBox="0 0 480 482" fill="none" xmlns="http://www.w3.org/2000/svg">
<path d="M0 2H480V482H0V2Z" fill="#FF535C"/>
<g clip-path="url(#clip0)">
<path d="M243.028 169.877C282.056 169.877 313.694 138.238 313.694 99.2106C313.694 60.1829 282.056 28.5447 243.028 28.5447C204 28.5447 172.362 60.1829 172.362 99.2106C172.362 138.238 204 169.877 243.028 169.877Z" fill="#FEB8B8"/>
<path d="M309.031 38.246C298.466 21.0898 281.928 8.4481 262.601 2.75431L253.925 9.0851V0.864751C249.284 0.15434 244.586 -0.119331 239.893 0.0473375L232.408 6.81954V0.609975C221.327 1.98706 210.65 5.64533 201.053 11.3541C191.455 17.0628 183.145 24.6983 176.645 33.7789C160.391 57.2111 157.647 89.8105 173.634 113.431C178.023 99.9436 183.349 87.2888 187.739 73.803C191.188 74.2732 193.047 68.4368 196.5 68L203.476 61.3948L191.5 88C208.05 86.5586 235.312 65.9004 251 63L260.227 56.6648L243 73.8534C247.806 72.7472 277.016 62.1605 276.78 61.3936C288.448 80.2047 302.728 92.2192 314.395 111.03C318.827 84.5056 323.928 62.4506 309.031 38.246Z" fill="#171720"/>
<path d="M395.01 280.93C392.58 266.311 390.074 251.411 383.279 238.241C378.814 229.615 371.725 221.395 362.17 219.689C360.288 219.521 358.438 219.093 356.673 218.417C353.873 217.068 316.248 195.589 310.268 191.848C305.133 188.637 297.028 182.69 292.941 182.69C288.829 182.6 273.063 186.269 211.527 181.459C211.527 181.459 194.622 188.122 181.541 196.202C181.343 196.071 117.672 230.262 115.28 230.172C110.75 229.982 106.54 232.882 103.943 236.535C101.346 240.187 100.128 244.709 98.8532 249.08C112.76 280.05 125.484 311.06 139.392 342.03C140.043 343.196 140.389 344.509 140.398 345.844C140.118 347.231 139.527 348.535 138.668 349.659C131.847 360.615 132.064 374.395 132.809 387.272C133.555 400.149 134.477 413.75 128.722 425.292C127.157 428.461 125.121 431.361 123.633 434.53C120.146 441.707 118.886 464.661 120.923 472.372L376.043 479.68C370.558 464.602 395.01 280.93 395.01 280.93Z" fill="#444444"/>
<path d="M76.8007 343.403C76.2917 347.085 76.2404 350.817 76.6482 354.512L80.3047 407.024C80.648 411.974 80.9858 416.911 81.4504 421.848C82.3277 431.429 83.6383 440.934 85.265 450.426C85.3017 451.773 85.8716 453.051 86.8495 453.979C87.8275 454.907 89.1337 455.409 90.4813 455.375C106.577 458.781 123.207 458.645 139.635 457.717C164.702 456.318 228.832 453.671 232.75 448.581C236.669 443.491 234.385 435.259 229.276 431.143C224.168 427.028 139.538 416.994 139.538 416.994C140.365 410.441 142.859 404.27 145.226 398.048C149.476 387.013 153.446 375.616 153.522 363.795C153.599 351.974 149.145 339.545 139.462 332.773C131.496 327.213 121.24 326.182 111.534 326.411C104.471 326.614 92.2687 324.922 85.818 327.683C80.7134 329.931 77.7544 338.405 76.8007 343.403Z" fill="#FBBEBE"/>
<path d="M98.1173 250.023C96.878 251.321 95.917 252.858 95.2932 254.54C85.0081 277.72 78.933 302.546 77.3526 327.856C77.3803 329.09 77.0959 330.312 76.5256 331.406C75.9633 332.135 75.3373 332.812 74.6551 333.429C74.0604 334.134 73.6103 334.95 73.3306 335.829C73.0509 336.708 72.9472 337.633 73.0252 338.552C73.1032 339.472 73.3614 340.366 73.7852 341.186C74.209 342.005 74.7901 342.733 75.4951 343.328C75.6108 343.425 75.7295 343.519 75.8512 343.609C77.9506 339.658 82.9762 338.366 87.4434 338.023C108.832 336.331 129.725 346.282 151.178 345.531C149.664 340.301 147.487 335.275 146.253 329.983C140.794 306.481 154.409 280.893 146.062 258.257C144.395 253.727 141.609 249.274 137.219 247.289C135.402 246.556 133.5 246.052 131.557 245.79C126.137 244.811 115.346 240.624 110.104 242.304C108.17 242.928 107.407 244.747 105.804 245.846C103.368 247.402 100.136 247.974 98.1173 250.023Z" fill="#444444"/>
<path d="M395.163 327.683C388.712 324.922 376.51 326.614 369.447 326.411C359.741 326.182 349.485 327.213 341.519 332.773C331.836 339.545 327.382 351.974 327.459 363.795C327.535 375.616 331.505 387.013 335.755 398.048C338.122 404.27 340.616 410.441 341.443 416.994C341.443 416.994 256.813 427.028 251.704 431.143C246.596 435.259 244.312 443.491 248.23 448.581C252.148 453.671 374.403 458.781 390.5 455.375C391.847 455.409 393.153 454.907 394.131 453.979C395.109 453.051 395.679 451.773 395.716 450.426C397.343 440.934 398.653 431.429 399.53 421.848C399.995 416.911 400.333 411.974 400.676 407.024L404.333 354.512C404.74 350.817 404.689 347.085 404.18 343.403C403.227 338.405 400.268 329.931 395.163 327.683Z" fill="#FBBEBE"/>
<path d="M375.177 245.846C373.574 244.747 372.811 242.928 370.877 242.304C365.636 240.624 354.845 244.811 349.424 245.79C347.482 246.052 345.58 246.556 343.762 247.289C339.372 249.274 336.586 253.727 334.919 258.257C326.572 280.893 340.187 306.481 334.728 329.983C333.494 335.275 331.317 340.301 329.803 345.531C351.256 346.282 372.149 336.331 393.538 338.023C398.005 338.366 403.03 339.658 405.13 343.609C405.251 343.519 405.37 343.425 405.486 343.328C406.191 342.733 406.772 342.005 407.196 341.186C407.62 340.366 407.878 339.472 407.956 338.552C408.034 337.633 407.93 336.708 407.65 335.829C407.371 334.95 406.921 334.135 406.326 333.429C405.644 332.812 405.018 332.135 404.455 331.406C403.885 330.312 403.601 329.09 403.629 327.856C402.048 302.546 395.973 277.72 385.688 254.54C385.064 252.858 384.103 251.321 382.864 250.023C380.845 247.974 377.613 247.402 375.177 245.846Z" fill="#444444"/>
<path d="M222.099 457.883C232.633 457.883 241.172 449.344 241.172 438.81C241.172 428.277 232.633 419.737 222.099 419.737C211.565 419.737 203.026 428.277 203.026 438.81C203.026 449.344 211.565 457.883 222.099 457.883Z" fill="#FBBEBE"/>
<path d="M264.331 457.883C274.865 457.883 283.404 449.344 283.404 438.81C283.404 428.277 274.865 419.737 264.331 419.737C253.798 419.737 245.259 428.277 245.259 438.81C245.259 449.344 253.798 457.883 264.331 457.883Z" fill="#FBBEBE"/>
<path d="M382.063 481.788H120.032C116.973 481.785 114.04 480.568 111.877 478.405C109.713 476.242 108.496 473.309 108.493 470.25V311.283C108.496 308.224 109.713 305.291 111.877 303.128C114.04 300.964 116.973 299.748 120.032 299.744H382.063C385.122 299.748 388.055 300.964 390.218 303.128C392.382 305.291 393.599 308.224 393.602 311.283V470.25C393.599 473.309 392.382 476.242 390.218 478.405C388.055 480.568 385.122 481.785 382.063 481.788Z" fill="#1C1B26"/>
<path d="M250.412 398.401C254.628 398.401 258.046 394.983 258.046 390.766C258.046 386.55 254.628 383.132 250.412 383.132C246.195 383.132 242.777 386.55 242.777 390.766C242.777 394.983 246.195 398.401 250.412 398.401Z" fill="white"/>
<path d="M178.046 125.549C166.691 125.549 157.487 115.597 157.487 103.32V92.205C157.487 79.928 166.691 69.9755 178.046 69.9755V125.549Z" fill="black"/>
<path d="M309.27 69.9756C320.624 69.9756 329.829 79.928 329.829 92.205V103.32C329.829 115.597 320.624 125.549 309.27 125.549V69.9756Z" fill="black"/>
<path d="M320.043 93.9516H316.781C316.781 49.2216 283.125 12.8309 241.755 12.8309C200.386 12.8309 166.729 49.2216 166.729 93.9516H163.467C163.467 47.2767 198.587 9.30396 241.755 9.30396C284.924 9.30398 320.043 47.2767 320.043 93.9516Z" fill="black"/>
</g>
<defs>
<clipPath id="clip0">
<rect width="335" height="482" fill="white" transform="translate(73)"/>
</clipPath>
</defs>
</svg>
